#!OML:ASF X:\für Bonn\!DataBase\2005_08_10_Bjorn_Final\c3d\bjorn.ASF
:FULLY-SPECIFIED
:DEGREES
31
root -9.48625 19.0632 -1.49801 1845.54 -86.5322 -407.491
lowerback -3.21263 2.51788 4.62622
upperback 7.16236 2.90211 -0.281442
thorax 9.66097 1.71056 -2.55612
lowerneck -7.74176 -2.934 4.1599
upperneck 3.79028 -4.21899 -2.17706
head 2.41563 -2.1078 -1.60811
rclavicle 3.77691e-015 -3.97569e-015
rhumerus -20.5848 -3.81709 -89.3757
rradius 49.0718
rwrist -12.6828
rhand -11.6684 9.70084
rfingers 7.12502
rthumb 14.3765 -19.7813
lclavicle 3.77691e-015 -3.97569e-015
lhumerus -36.0721 11.57 80.8366
lradius 19.5693
lwrist -36.74
lhand -10.616 -6.24826
lfingers 7.12502
lthumb 15.3903 23.1589
rfemur 4.49042 -7.12654 19.2641
rtibia 21.6855
rfoot -16.4595 18.3108
rtoes 0.531497
lfemur -25.4467 9.05969 -14.7435
ltibia 29.3637
lfoot -4.58607 -3.43672
ltoes -9.51503
32
root -9.63777 19.0523 -1.47914 1849.86 -86.5404 -411.725
lowerback -3.31205 2.62903 4.74418
upperback 7.13952 3.04601 -0.358494
thorax 9.72128 1.79421 -2.68229
lowerneck -7.77426 -3.01169 4.1572
upperneck 3.76564 -4.32668 -2.12838
head 2.41039 -2.16029 -1.59629
rclavicle -6.4605e-015 -3.37934e-015
rhumerus -20.0664 -3.32775 -89.4132
rradius 50.0113
rwrist -13.2156
rhand -11.6943 9.77318
rfingers 7.12502
rthumb 14.3516 -19.7107
lclavicle -6.4605e-015 -3.37934e-015
lhumerus -36.0575 11.3231 80.8534
lradius 19.7384
lwrist -36.5087
lhand -10.6011 -6.18508
lfingers 7.12502
lthumb 15.4047 23.221
rfemur 5.2059 -7.31137 19.2642
rtibia 21.1046
rfoot -16.5154 18.6805
rtoes 0.265649
lfemur -25.8269 9.17219 -14.6116
ltibia 27.6471
lfoot -3.96997 -3.97842
ltoes -10.674
33
root -9.78974 19.0441 -1.45938 1854.02 -86.525 -415.779
lowerback -3.43954 2.72951 4.84358
upperback 7.11249 3.17568 -0.433045
thorax 9.79187 1.86967 -2.79574
lowerneck -7.85141 -3.07817 4.20715
upperneck 3.8022 -4.42363 -2.13055
head 2.43251 -2.20769 -1.61256
rclavicle 1.88845e-015 -1.39149e-015
rhumerus -19.5188 -2.80852 -89.4251
rradius 50.9494
rwrist -13.7267
rhand -11.8158 10.0183
rfingers 7.12502
rthumb 14.2345 -19.4739
lclavicle 1.88845e-015 -1.39149e-015
lhumerus -36.0068 11.3908 80.7411
lradius 19.8081
lwrist -36.5856
lhand -10.5625 -6.1387
lfingers 7.12502
lthumb 15.442 23.2645
rfemur 5.91341 -7.53082 19.2534
rtibia 20.4872
rfoot -16.5493 18.9996
rtoes -0.101125
lfemur -26.2144 9.28966 -14.4904
ltibia 26.0722
lfoot -3.46932 -4.51528
ltoes -11.9672
34
root -9.94238 19.0313 -1.43952 1858.44 -86.4804 -420.107
lowerback -3.57952 2.82392 4.93237
upperback 7.09789 3.29406 -0.479239
thorax 9.88083 1.93781 -2.87315
lowerneck -7.90044 -3.13957 4.19268
upperneck 3.78872 -4.50689 -2.12086
head 2.43451 -2.24942 -1.61122
rclavicle -5.11871e-015 2.78299e-015
rhumerus -18.9233 -2.26563 -89.3867
rradius 51.8976
rwrist -14.3663
rhand -11.926 10.2728
rfingers 7.12502
rthumb 14.1283 -19.2268
lclavicle -5.11871e-015 2.78299e-015
lhumerus -35.9441 11.5818 80.6256
lradius 19.8341
lwrist -36.7727
lhand -10.5842 -6.14503
lfingers 7.12502
lthumb 15.421 23.2598
rfemur 6.6549 -7.70928 19.2527
rtibia 19.8272
rfoot -16.5012 19.375
rtoes -0.251105
lfemur -26.5766 9.39963 -14.3305
ltibia 24.6565
lfoot -3.07088 -5.03579
ltoes -12.8757
35
root -10.0944 19.0156 -1.41856 1862.28 -86.4247 -423.846
lowerback -3.70282 2.91855 5.01937
upperback 7.07576 3.41672 -0.557433
thorax 9.95469 2.00918 -2.9837
lowerneck -7.93104 -3.20065 4.24785
upperneck 3.76377 -4.59589 -2.11679
head 2.42764 -2.29319 -1.62336
rclavicle 5.70015e-014 -1.07344e-014
rhumerus -18.3295 -1.81445 -89.3592
rradius 52.9182
rwrist -14.9315
rhand -12.0109 10.3321
rfingers 7.12502
rthumb 14.0465 -19.1732
lclavicle 5.70015e-014 -1.07344e-014
lhumerus -35.8578 11.7934 80.4526
lradius 19.8226
lwrist -36.9521
lhand -10.6435 -6.181
lfingers 7.12502
lthumb 15.3639 23.2282
rfemur 7.38933 -7.88388 19.2321
rtibia 19.1615
rfoot -16.4495 19.7039
rtoes -0.560136
lfemur -26.9477 9.40683 -14.1705
ltibia 23.3983
lfoot -2.73923 -5.44052
ltoes -13.329
36
root -10.2478 18.9997 -1.39814 1866.08 -86.3357 -427.605
lowerback -3.79803 3.0095 5.11291
upperback 7.07202 3.53291 -0.624744
thorax 10.0322 2.07746 -3.08762
lowerneck -7.98345 -3.27157 4.27646
upperneck 3.76658 -4.69575 -2.11969
head 2.43404 -2.34274 -1.63484
rclavicle 5.4964e-014 -1.07344e-014
rhumerus -17.7036 -1.3727 -89.2955
rradius 53.9952
rwrist -15.5883
rhand -12.0335 10.2361
rfingers 7.12502
rthumb 14.0247 -19.2707
lclavicle 5.4964e-014 -1.07344e-014
lhumerus -35.7553 12.0984 80.2497
lradius 19.7688
lwrist -37.1729
lhand -10.7329 -6.25743
lfingers 7.12502
lthumb 15.2778 23.1583
rfemur 8.20346 -8.0156 19.2293
rtibia 18.4664
rfoot -16.3407 20.0137
rtoes -0.640549
lfemur -27.2713 9.47285 -13.9838
ltibia 22.3241
lfoot -2.57762 -5.85261
ltoes -14.1162
37
root -10.4013 18.9855 -1.37607 1869.18 -86.2643 -430.648
lowerback -3.9205 3.09319 5.13591
upperback 7.0774 3.64314 -0.685759
thorax 10.13 2.13768 -3.14442
lowerneck -8.04459 -3.3501 4.28789
upperneck 3.75448 -4.80452 -2.12148
head 2.43707 -2.39719 -1.64324
rclavicle 5.1684e-015 2.78299e-015
rhumerus -17.0367 -0.961804 -89.1775
rradius 55.0834
rwrist -16.2378
rhand -12.052 10.0823
rfingers 7.12502
rthumb 14.0069 -19.4258
lclavicle 5.1684e-015 2.78299e-015
lhumerus -35.6118 12.5711 80.0068
lradius 19.6607
lwrist -37.5832
lhand -10.8504 -6.37515
lfingers 7.12502
lthumb 15.1646 23.0492
rfemur 9.02691 -8.09624 19.1929
rtibia 17.7239
rfoot -16.2102 20.2574
rtoes -0.871925
lfemur -27.5822 9.41798 -13.8132
ltibia 21.4396
lfoot -2.67183 -6.1757
ltoes -15.4969
38
root -10.555 18.9698 -1.35425 1872.56 -86.1678 -433.966
lowerback -4.03872 3.1765 5.16625
upperback 7.07552 3.75197 -0.737639
thorax 10.2172 2.19705 -3.19575
lowerneck -8.11344 -3.42047 4.30034
upperneck 3.77285 -4.90143 -2.14639
head 2.45166 -2.44611 -1.6599
rclavicle 8.84592e-015 -2.0276e-014
rhumerus -16.3519 -0.607651 -89.0438
rradius 56.2057
rwrist -16.8851
rhand -12.018 9.83127
rfingers 7.12502
rthumb 14.0397 -19.6745
lclavicle 8.84592e-015 -2.0276e-014
lhumerus -35.4807 12.9403 79.8238
lradius 19.5798
lwrist -37.8364
lhand -10.9807 -6.45072
lfingers 7.12502
lthumb 15.0391 22.9831
rfemur 9.86823 -8.19326 19.165
rtibia 16.9461
rfoot -16.0137 20.5291
rtoes -0.91668
lfemur -27.8723 9.29456 -13.5679
ltibia 20.7363
lfoot -2.88181 -6.41128
ltoes -16.7176
39
root -10.7101 18.9516 -1.33073 1875.52 -86.0794 -436.877
lowerback -4.16332 3.25014 5.16127
upperback 7.07914 3.85024 -0.787685
thorax 10.3105 2.24861 -3.22611
lowerneck -8.13484 -3.49649 4.28157
upperneck 3.74345 -5.00043 -2.17585
head 2.44186 -2.4972 -1.67003
rclavicle -1.45113e-014 -6.36111e-015
rhumerus -15.6793 -0.203709 -88.8567
rradius 57.3953
rwrist -17.6066
rhand -11.9761 9.59524
rfingers 7.12502
rthumb 14.08 -19.9078
lclavicle -1.45113e-014 -6.36111e-015
lhumerus -35.3317 13.1942 79.7131
lradius 19.4843
lwrist -37.9939
lhand -11.1068 -6.49968
lfingers 7.12502
lthumb 14.9176 22.9432
rfemur 10.7306 -8.21124 19.1199
rtibia 16.167
rfoot -15.7831 20.7518
rtoes -1.05003
lfemur -28.1455 9.13831 -13.3443
ltibia 20.1753
lfoot -3.01208 -6.58784
ltoes -17.0672
40
root -10.8655 18.9292 -1.3071 1878.12 -86.0154 -439.411
lowerback -4.3096 3.33173 5.09965
upperback 7.07438 3.9649 -0.845908
thorax 10.4048 2.30411 -3.23007
lowerneck -8.17799 -3.57994 4.21069
upperneck 3.74125 -5.10849 -2.13637
head 2.44751 -2.55096 -1.65029
rclavicle 3.08116e-014 9.54166e-015
rhumerus -14.9867 0.136992 -88.6241
rradius 58.5842
rwrist -18.3668
rhand -11.916 9.39361
rfingers 7.12502
rthumb 14.1379 -20.1054
lclavicle 3.08116e-014 9.54166e-015
lhumerus -35.1713 13.2368 79.6971
lradius 19.4245
lwrist -37.9597
lhand -11.2479 -6.45641
lfingers 7.12502
lthumb 14.7816 22.9965
rfemur 11.5628 -8.21013 19.0391
rtibia 15.4236
rfoot -15.5806 20.9522
rtoes -1.37565
lfemur -28.4152 8.93661 -13.1472
ltibia 19.7187
lfoot -3.10521 -6.75129
ltoes -17.145
41
root -11.0222 18.9043 -1.28236 1880.63 -85.9436 -441.878
lowerback -4.42859 3.39859 5.01638
upperback 7.06272 4.06172 -0.884216
thorax 10.4694 2.34757 -3.2045
lowerneck -8.16649 -3.66003 4.11908
upperneck 3.73662 -5.20719 -2.10102
head 2.44304 -2.60036 -1.62613
rclavicle -3.97569e-014 -5.56597e-015
rhumerus -14.3176 0.448677 -88.3611
rradius 59.8523
rwrist -18.9873
rhand -11.7934 9.01132
rfingers 7.12502
rthumb 14.2561 -20.4794
lclavicle -3.97569e-014 -5.56597e-015
lhumerus -35.0376 13.2598 79.7259
lradius 19.3571
lwrist -37.9293
lhand -11.3898 -6.4269
lfingers 7.12502
lthumb 14.645 23.036
rfemur 12.4144 -8.15311 18.9573
rtibia 14.7252
rfoot -15.3449 21.1438
rtoes -1.45918
lfemur -28.5891 8.63458 -12.9128
ltibia 19.3416
lfoot -3.28084 -6.82553
ltoes -17.1568
42
root -11.1797 18.878 -1.2568 1883.04 -85.8651 -444.232
lowerback -4.57969 3.47116 4.92754
upperback 7.04968 4.16593 -0.92376
thorax 10.552 2.39445 -3.17401
lowerneck -8.14682 -3.74341 3.95019
upperneck 3.71377 -5.30715 -1.97081
head 2.43505 -2.64856 -1.55707
rclavicle -3.19049e-014 2.38542e-015
rhumerus -13.6378 0.746393 -88.0395
rradius 61.2296
rwrist -19.5206
rhand -11.6957 8.48915
rfingers 7.12502
rthumb 14.3502 -20.9949
lclavicle -3.19049e-014 2.38542e-015
lhumerus -34.8999 13.2506 79.7702
lradius 19.3249
lwrist -37.8979
lhand -11.4896 -6.27548
lfingers 7.12502
lthumb 14.5488 23.1943
rfemur 13.2435 -8.00148 18.9074
rtibia 14.0351
rfoot -15.1471 21.1904
rtoes -1.94477
lfemur -28.7698 8.32852 -12.6722
ltibia 19.0852
lfoot -3.41359 -6.94136
ltoes -16.3169
